HIERARCHY
ROOT Hips
{
	OFFSET 0.00000 0.00000 0.00000
	CHANNELS 6 Xposition Yposition Zposition Zrotation Yrotation Xrotation 
	JOINT LHipJoint
	{
		OFFSET 0 0 0
		CHANNELS 3 Zrotation Yrotation Xrotation
		JOINT LeftHip
		{
			OFFSET 1.44361 -1.63093 0.70831
			CHANNELS 3 Zrotation Yrotation Xrotation
			JOINT LeftKnee
			{
				OFFSET 2.20103 -6.04728 0.00000
				CHANNELS 3 Zrotation Yrotation Xrotation
				JOINT LeftAnkle
				{
					OFFSET 2.54154 -6.98283 0.00000
					CHANNELS 3 Zrotation Yrotation Xrotation
					JOINT LeftToe
					{
						OFFSET 0.05971 -0.16406 1.77582
						CHANNELS 3 Zrotation Yrotation Xrotation
						End Site
						{
							OFFSET 0.00000 -0.00000 0.90832
						}
					}
				}
			}
		}
	}
	JOINT RHipJoint
	{
		OFFSET 0 0 0
		CHANNELS 3 Zrotation Yrotation Xrotation
		JOINT RightHip
		{
			OFFSET -1.65838 -1.63093 0.70830
			CHANNELS 3 Zrotation Yrotation Xrotation
			JOINT RightKnee
			{
				OFFSET -2.26926 -6.23475 0.00000
				CHANNELS 3 Zrotation Yrotation Xrotation
				JOINT RightAnkle
				{
					OFFSET -2.34808 -6.45129 0.00000
					CHANNELS 3 Zrotation Yrotation Xrotation
					JOINT RightToe
					{
						OFFSET -0.18633 -0.51195 1.68539
						CHANNELS 3 Zrotation Yrotation Xrotation
						End Site
						{
							OFFSET -0.00000 -0.00000 0.88927
						}
					}
				}
			}
		}
	}
	JOINT lowerback
	{
		OFFSET 0 0 0
		CHANNELS 3 Zrotation Yrotation Xrotation
		JOINT Chest
		{
			OFFSET -0.10393 2.01691 0.06920
			CHANNELS 3 Zrotation Yrotation Xrotation
			JOINT Chest2
			{
				OFFSET 0.04092 2.01302 -0.05283
				CHANNELS 3 Zrotation Yrotation Xrotation
				JOINT lowerneck
				{
					OFFSET 0 0 0
					CHANNELS 3 Zrotation Yrotation Xrotation
					JOINT Neck
					{
						OFFSET -0.02870 1.58978 -0.03113
						CHANNELS 3 Zrotation Yrotation Xrotation
						JOINT Head
						{
							OFFSET 0.11532 1.54326 -0.29195
							CHANNELS 3 Zrotation Yrotation Xrotation
							End Site
							{
								OFFSET 0.04056 1.59999 -0.09535
							}
						}
					}
				}
				JOINT LeftCollar
				{
					OFFSET 0 0 0
					CHANNELS 3 Zrotation Yrotation Xrotation
					JOINT LeftShoulder
					{
						OFFSET 3.30641 1.15764 0.01104
CHANNELS 3 Zrotation Xrotation Yrotation
						JOINT LeftElbow
						{
OFFSET 0 -4.632080 0.000000
CHANNELS 3 Zrotation Xrotation Yrotation
							JOINT LeftWrist
							{
OFFSET 0 -3.419240 -0.000000
CHANNELS 3 Zrotation Xrotation Yrotation
								JOINT lhand
								{
									OFFSET 0 0 0
CHANNELS 3 Zrotation Xrotation Yrotation
									JOINT LFingers
									{
OFFSET 0 -0.625370 -0.000000
CHANNELS 3 Zrotation Xrotation Yrotation
										End Site
										{
OFFSET 0 -0.504190 -0.000000
										}
									}
								}
								JOINT LThumb
								{
OFFSET 0 0.000000 0.000000
CHANNELS 3 Zrotation Xrotation Yrotation
									End Site
									{
OFFSET 0 -0.511890 0.511890
									}
								}
							}
						}
					}
				}
				JOINT RightCollar
				{
					OFFSET 0 0 0
					CHANNELS 3 Zrotation Yrotation Xrotation
					JOINT RightShoulder
					{
						OFFSET -3.78081 1.02180 -0.16609
CHANNELS 3 Zrotation Xrotation Yrotation
						JOINT RightElbow
						{
OFFSET 0 -4.406400 -0.000000
CHANNELS 3 Zrotation Xrotation Yrotation
							JOINT RightWrist
							{
OFFSET 0 -3.446750 0.000000
CHANNELS 3 Zrotation Xrotation Yrotation
								JOINT rhand
								{
									OFFSET 0 0 0
CHANNELS 3 Zrotation Xrotation Yrotation
									JOINT RFingers
									{
OFFSET 0 -0.513670 -0.000000
CHANNELS 3 Zrotation Xrotation Yrotation
										End Site
										{
OFFSET 0 -0.414140 -0.000000
										}
									}
								}
								JOINT RThumb
								{
OFFSET 0 0.000000 0.000000
CHANNELS 3 Zrotation Xrotation Yrotation
									End Site
									{
OFFSET 0 -0.420460 0.420460
									}
								}
							}
						}
					}
				}
			}
		}
	}
}
MOTION
Frames: 9
Frame Time: 0.008333333333333333
8.402809 15.512460 13.541670 -172.094456 19.495699 -161.714481 0.000000 0.000000 0.000000 -7.527756 -9.689360 -49.244586 7.408347 15.666261 50.402135 1.053859 -1.853520 -18.875397 8.529347 -16.494855 -54.447244 0.000000 0.000000 0.000000 7.470350 12.383710 6.093925 -17.319097 -19.794542 82.125787 -45.483093 38.551191 75.428743 -0.204235 2.802525 -7.736968 -4.913651 6.578069 -1.163523 2.151261 8.955508 2.755267 5.151182 4.379907 2.411663 -2.834176 -4.071690 -7.856711 7.101935 -5.493353 21.981116 2.397187 -1.679763 8.384716 0.000000 0.000000 0.000000 56.507358 17.506522 -40.263317 16.166753 -25.743844 3.719441 39.985643 -14.718338 21.578040 0.000000 0.000000 0.000000 -7.125000 0.000000 0.000000 6.907802 2.850575 6.604492 0.000000 0.000000 0.000000 -40.479881 -12.110907 30.247036 -27.505152 -38.648701 -9.816147 -13.233393 7.166639 38.430799 0.000000 0.000000 0.000000 7.125000 0.000000 0.000000 29.266881 66.974619 -16.065683
8.378028 15.495581 13.457810 -172.515367 18.434496 -162.243442 0.000000 0.000000 0.000000 -8.224867 -10.790879 -48.341158 7.374642 15.639383 50.277206 1.107776 -2.524559 -19.215190 8.441240 -16.434164 -54.136533 0.000000 0.000000 0.000000 7.838849 13.269129 5.852774 -15.942292 -19.574625 78.046762 -39.861478 28.004374 -90.729170 -0.350506 3.739174 -10.350705 -4.977352 6.256606 -1.057570 2.381983 8.532124 2.882400 5.421146 4.164721 2.492190 -3.019527 -4.221670 -7.618732 7.156605 -5.650859 22.210548 2.439762 -1.746690 8.434548 0.000000 0.000000 0.000000 56.037475 16.744366 -40.711752 16.600458 -26.326132 3.909523 39.979730 -14.870415 21.681521 0.000000 0.000000 0.000000 -7.125000 0.000000 0.000000 6.882805 2.728924 6.595676 0.000000 0.000000 0.000000 -40.447842 -10.483920 29.795107 -26.665855 -37.852302 -9.295840 -12.901179 7.239318 37.318797 0.000000 0.000000 0.000000 7.125000 0.000000 0.000000 28.143644 65.935457 -14.742849
8.350598 15.485786 13.380347 -173.052863 17.364628 -162.762087 0.000000 0.000000 0.000000 -9.046850 -11.973354 -47.429924 7.326149 15.600365 50.097010 1.142332 -3.190165 -19.400432 8.295151 -16.330897 -53.617105 0.000000 0.000000 0.000000 8.020366 14.137800 5.326559 -14.877066 -19.342018 74.853675 -37.475233 26.094082 -148.287563 -0.283864 3.200842 -8.856238 -5.059933 5.891709 -0.971219 2.512662 8.050653 3.008640 5.602072 3.917757 2.606970 -3.153499 -4.339770 -7.371020 7.208421 -5.770604 22.432069 2.476835 -1.791985 8.476573 0.000000 0.000000 0.000000 55.473120 15.892931 -40.885990 17.029315 -26.893700 4.102013 39.886706 -14.931597 21.778399 0.000000 0.000000 0.000000 -7.125000 0.000000 0.000000 6.806945 2.642421 6.532695 0.000000 0.000000 0.000000 -39.946371 -8.714521 28.804070 -25.974301 -37.178368 -8.874131 -11.472385 6.919530 38.287464 0.000000 0.000000 0.000000 7.125000 0.000000 0.000000 31.095115 66.286949 -16.793016
8.321677 15.479980 13.306486 -173.656008 16.289879 -163.274922 0.000000 0.000000 0.000000 -9.939151 -13.201416 -46.514294 7.269329 15.554511 49.885694 1.165985 -3.852711 -19.498644 8.116412 -16.203656 -52.980147 0.000000 0.000000 0.000000 8.096592 14.997040 4.639823 -13.987292 -19.102265 72.159465 -36.910846 29.047074 -144.692828 -0.097330 1.831939 -5.048414 -5.153147 5.502352 -0.895906 2.587007 7.536475 3.134376 5.732861 3.652900 2.741038 -3.258539 -4.439918 -7.117828 7.258629 -5.869085 22.649137 2.510809 -1.825098 8.514203 0.000000 0.000000 0.000000 54.855568 14.991224 -40.905826 17.455441 -27.452980 4.295858 39.744628 -14.941595 21.871559 0.000000 0.000000 0.000000 -7.125000 0.000000 0.000000 6.702442 2.575710 6.439213 0.000000 0.000000 0.000000 -39.180559 -6.864929 27.509458 -25.365941 -36.573395 -8.507943 -9.426100 6.378742 40.427769 0.000000 0.000000 0.000000 7.125000 0.000000 0.000000 36.341081 67.421529 -20.742542
8.291583 15.488422 13.240293 -174.376482 15.403778 -163.886229 0.000000 0.000000 0.000000 -11.026678 -14.283404 -45.478150 7.205594 15.502413 49.647435 1.173086 -4.350032 -19.496122 7.987746 -16.109686 -52.517674 0.000000 0.000000 0.000000 7.737906 15.823177 3.194849 -13.246736 -18.857316 69.878672 -35.703329 28.323106 -140.024827 -0.249709 2.821933 -7.812096 -5.431405 5.108889 -0.703516 2.610691 7.017896 3.297824 5.903877 3.381799 2.841039 -3.334330 -4.484251 -6.811712 7.227755 -5.881497 22.799495 2.520437 -1.829090 8.510767 0.000000 0.000000 0.000000 54.061059 13.942185 -40.659368 17.782046 -27.875740 4.447590 39.614325 -15.014868 21.998785 0.000000 0.000000 0.000000 -7.125000 0.000000 0.000000 6.598024 2.465126 6.350717 0.000000 0.000000 0.000000 -38.249356 -5.306900 25.999380 -24.612345 -35.795697 -8.065911 -9.885624 7.093457 40.920149 0.000000 0.000000 0.000000 7.125000 0.000000 0.000000 36.581713 67.969799 -21.263215
8.261157 15.500893 13.176270 -175.130145 14.571040 -164.525391 0.000000 0.000000 0.000000 -12.169428 -15.324071 -44.407916 7.139904 15.448549 49.401554 1.175505 -4.800617 -19.465105 7.873245 -16.025128 -52.104557 0.000000 0.000000 0.000000 7.256196 16.639949 1.535393 -12.548388 -18.610897 67.714821 -34.313891 26.559040 -135.053233 -0.497955 4.479185 -12.434650 -5.762006 4.714264 -0.478009 2.620045 6.498073 3.471941 6.086272 3.108933 2.931404 -3.401848 -4.512795 -6.490626 7.173945 -5.869564 22.930983 2.523179 -1.824843 8.495715 0.000000 0.000000 0.000000 53.216495 12.851470 -40.337583 18.080501 -28.259882 4.587410 39.487352 -15.106038 22.135649 0.000000 0.000000 0.000000 -7.125000 0.000000 0.000000 6.493629 2.342131 6.263632 0.000000 0.000000 0.000000 -37.271368 -3.831344 24.428353 -23.817667 -34.969141 -7.602424 -11.053962 8.163314 40.946382 0.000000 0.000000 0.000000 7.125000 0.000000 0.000000 35.406493 68.352221 -20.813974
8.227074 15.526756 13.123216 -175.797331 13.986862 -165.105254 0.000000 0.000000 0.000000 -13.299380 -16.039188 -43.340154 7.030778 15.357130 48.989636 1.163593 -4.958019 -19.347956 7.856341 -16.012568 -52.043577 0.000000 0.000000 0.000000 6.582951 17.790476 -0.806740 -11.900889 -18.336905 65.661513 -34.249534 23.802757 -135.230853 -0.579720 4.868281 -13.534657 -5.998124 4.348548 -0.248251 2.568024 6.017289 3.671358 6.156148 2.856277 3.064858 -3.442336 -4.462966 -6.011509 7.096613 -5.751979 22.889664 2.522560 -1.782398 8.384797 0.000000 0.000000 0.000000 52.268799 11.473601 -39.770844 18.190781 -28.400603 4.639715 39.170476 -14.619441 21.780826 0.000000 0.000000 0.000000 -7.125000 0.000000 0.000000 6.374954 2.857835 6.088340 0.000000 0.000000 0.000000 -35.811083 -2.127043 22.320820 -23.551785 -34.685860 -7.450257 -13.427747 9.759547 39.767663 0.000000 0.000000 0.000000 7.125000 0.000000 0.000000 30.996671 68.119171 -17.926217
8.192492 15.554535 13.071780 -176.450195 13.419976 -165.689678 0.000000 0.000000 0.000000 -14.429210 -16.711023 -42.249526 6.912212 15.257260 48.541124 1.149011 -5.083302 -19.211337 7.849391 -16.007366 -52.018523 0.000000 0.000000 0.000000 5.871379 18.938224 -3.287221 -11.267284 -18.062533 63.645498 -34.377783 21.262501 -136.126391 -0.622514 4.969559 -13.833020 -6.213801 3.980492 -0.003768 2.511535 5.533431 3.880588 6.209733 2.602631 3.204087 -3.473969 -4.400398 -5.542845 7.001901 -5.615744 22.845229 2.515981 -1.732598 8.272931 0.000000 0.000000 0.000000 51.299637 10.058611 -39.155767 18.280868 -28.515273 4.682591 38.903516 -14.130472 21.443453 0.000000 0.000000 0.000000 -7.125000 0.000000 0.000000 6.282537 3.337339 5.943087 0.000000 0.000000 0.000000 -34.302753 -0.420162 20.168271 -23.338182 -34.456479 -7.328784 -15.813091 11.374566 38.657139 0.000000 0.000000 0.000000 7.125000 0.000000 0.000000 26.676958 67.948238 -15.130172
8.155078 15.594099 13.030764 -176.995821 12.780653 -166.429902 0.000000 0.000000 0.000000 -15.575025 -17.148653 -40.790796 6.703960 15.075241 47.741607 1.111920 -5.107062 -18.884875 7.864497 -16.018655 -52.073139 0.000000 0.000000 0.000000 4.816896 19.574161 -7.017690 -10.784015 -17.820737 62.069365 -35.721421 23.557195 -141.257910 -0.277022 2.257287 -6.281609 -6.235841 3.534637 0.469610 2.469767 4.945875 4.210867 6.161137 2.304875 3.375032 -3.402258 -4.244451 -5.462265 6.662968 -5.330083 22.993166 2.419058 -1.619011 8.280242 0.000000 0.000000 0.000000 50.132588 8.453879 -38.112950 18.312531 -28.555482 4.697697 39.698625 -14.413015 22.073100 0.000000 0.000000 0.000000 -7.125000 0.000000 0.000000 6.628888 2.344891 6.400445 0.000000 0.000000 0.000000 -32.703827 1.007443 18.049361 -23.217553 -34.325637 -7.260729 -16.694210 12.551828 40.322024 0.000000 0.000000 0.000000 7.125000 0.000000 0.000000 28.325233 69.630056 -17.212528
